<svg id="レイヤー_1" data-name="レイヤー 1" xmlns="http://www.w3.org/2000/svg" viewBox="0 0 1366 768.4"><g id="Layer-1"><path d="M1143.29,479.29l-76.2-56.11c-.7-2.5-1.4-5-2.2-7.5l25-36.19a13.38,13.38,0,0,0,1.4-12.7,12.65,12.65,0,0,0-9.6-7.9l-42.2-7.2c-1.6-3.3-3.4-6.6-5.1-9.9l17.8-40.7a13.61,13.61,0,0,0-1-12.7,12.2,12.2,0,0,0-10.9-5.8l-42.9,1.6c-2.2-2.9-4.5-5.8-6.8-8.6l9.9-43.7a13.73,13.73,0,0,0-3.3-12.3,12.38,12.38,0,0,0-11.8-3.5l-41.8,10.3c-2.7-2.4-5.5-4.8-8.2-7.1l1.5-44.8a13.45,13.45,0,0,0-5.6-11.4,12.13,12.13,0,0,0-12.2-1l-39,18.5c-3.1-1.8-6.3-3.6-9.5-5.3l-6.9-44.1a13,13,0,0,0-7.6-10,12,12,0,0,0-12.1,1.5l-34.8,26.1c-3.4-1.1-6.9-2.2-10.3-3.3l-15-41.8a12.59,12.59,0,0,0-9.3-8.3,12.11,12.11,0,0,0-11.6,3.9l-29.3,32.8c-3.5-.4-7.1-.8-10.6-1.1l-22.6-38.1a12.33,12.33,0,0,0-21.4,0L656.49,131c-3.6.3-7.1.7-10.6,1.1l-29.3-32.8a12.26,12.26,0,0,0-11.6-3.9,12.59,12.59,0,0,0-9.3,8.3l-15,41.8c-3.5,1-6.9,2.1-10.3,3.3l-34.8-26.1a12.17,12.17,0,0,0-12.2-1.5,13,13,0,0,0-7.6,10l-6.9,44.1c-3.2,1.7-6.3,3.5-9.5,5.3l-39-18.5a12.13,12.13,0,0,0-12.2,1,13.46,13.46,0,0,0-5.6,11.4l1.5,44.8c-2.8,2.3-5.5,4.7-8.2,7.1l-41.8-10.3a12.45,12.45,0,0,0-11.8,3.5,13.78,13.78,0,0,0-3.4,12.3l9.8,43.6c-2.3,2.8-4.5,5.7-6.8,8.6l-42.9-1.6a12.53,12.53,0,0,0-10.9,5.8,13.64,13.64,0,0,0-1,12.7l17.8,40.7-5.1,9.9-42.3,7.2a12.65,12.65,0,0,0-9.6,7.9,13.66,13.66,0,0,0,1.4,12.7l25,36.2c-.2.6-.4,1.3-.6,1.9L243,492.68s-10.8,8.5,4.9,28.5c13.9,17.61,85.4,87.5,123.1,124,15.9,18.61,26.9,30.11,28,29.11,1.8-1.61-7.7-35.4-39.1-75-24.2-35.61-55.6-90.3-48.3-96.61,0,0,8.4-10.6,25.2-18.3h0s354.8,163.7,683.9,2.8c37.6-6.69,60.4,13.4,60.4,13.4,7.8,4.6-12.5,60.8-29.2,98.1-22.7,42.21-26,75.21-24.1,76.41,1.2.7,9.5-11.9,21.3-31.9,29.1-40.6,84.1-117.9,94.2-136.7,11.4-21.3,0-27.2,0-27.2" fill="#f74c00"/></g></svg>