<svg id="レイヤー_1" data-name="レイヤー 1" xmlns="http://www.w3.org/2000/svg" viewBox="0 0 1366 768.38"><g id="Layer-1"><path d="M1076,479.38l-11.59-24c.07-.9.11-1.82.11-2.73,0-27.22-28.3-52.3-75.9-72.38V397q-7-2.76-14.52-5.37v-7.78c-68-24.54-169.32-40.11-282.47-40.11C592.8,343.7,503,355.58,436.49,375v27.12h0V369.25c-68.12,21.65-110.36,51.72-110.36,85a41.45,41.45,0,0,0,3.09,15.47L322.28,482s-5.56,7.21,4.23,22.43c8.64,13.42,51.89,65.94,74.72,93.44,9.8,14.1,16.45,22.79,17,22,.92-1.33-6.09-27.81-25.57-58-9.08-16.22-19.93-37.71-26.45-53.59,18.19,11.51,125,65.31,342.94,65.09,222.72-.22,321.72-69.93,332.58-79.42-3.8,15.25-16.77,46.11-27.11,67.81-17,31-23.16,58.06-22.37,59.39.5.85,6.3-8.1,14.86-22.6,19.9-28.36,57.61-82.5,65.15-96.29,8.54-15.63,3.73-22.86,3.73-22.86" fill="#a52b00"/></g></svg>