<svg id="レイヤー_1" data-name="レイヤー 1" xmlns="http://www.w3.org/2000/svg" viewBox="0 0 1366 768.4"><g id="Layer-1"><path d="M756.9,394s35.5-38.8,70.9,0c0,0,27.9,51.8,0,77.7,0,0-45.6,36.2-70.9,0,0-.1-30.4-28.5,0-77.7"/><path d="M798,408.37c0,15.1-8.9,27.4-19.9,27.4s-19.9-12.3-19.9-27.4,8.9-27.4,19.9-27.4,19.9,12.3,19.9,27.4" fill="#fff"/><path d="M598.65,383.34s60.8-26.9,77.4,33.2c0,0,17.4,70.1-49.9,74,0,0-85.9-16.5-27.5-107.2"/><path d="M629.17,409.3c0,15.6-9.2,28.2-20.5,28.2s-20.5-12.6-20.5-28.2,9.2-28.2,20.5-28.2,20.5,12.6,20.5,28.2" fill="#fff"/><path d="M676.62,515.07l77.6-6.2a46,46,0,0,1-12.7,21.9s-26.7,29.3-57.3-2.4a38.78,38.78,0,0,1-7.6-13.3"/></g></svg>