<?xml version="1.0" encoding="utf-8"?>
<!-- Generator: Adobe Illustrator 25.3.1, SVG Export Plug-In . SVG Version: 6.00 Build 0)  -->
<svg version="1.1" id="レイヤー_1" xmlns:serif="http://www.serif.com/"
	 xmlns="http://www.w3.org/2000/svg" xmlns:xlink="http://www.w3.org/1999/xlink" x="0px" y="0px" viewBox="0 0 1366 768.4"
	 style="enable-background:new 0 0 1366 768.4;" xml:space="preserve">
<style type="text/css">
	.st0{fill:#A52B00;}
	.st1{fill:#F74C00;}
	.st2{fill:#FFFFFF;}
</style>
<g id="Layer-1" serif:id="Layer 1">
	<g transform="matrix(1,0,0,1,1009.4,506.362)">
		<path class="st0" d="M66.6-27L55-51c0.1-0.9,0.1-1.8,0.1-2.7c0-27.2-28.3-52.3-75.9-72.4v16.7c-4.6-1.8-9.5-3.6-14.5-5.4v-7.8
			c-68-24.5-169.3-40.1-282.5-40.1c-98.9,0-188.7,11.9-255.2,31.3v27.1h0v-32.8c-68.1,21.6-110.4,51.7-110.4,85
			c0,5.2,1.1,10.4,3.1,15.5l-6.9,12.4c0,0-5.6,7.2,4.2,22.4c8.6,13.4,51.9,65.9,74.7,93.4c9.8,14.1,16.5,22.8,17,21.9
			c0.9-1.3-6.1-27.8-25.6-58c-9.1-16.2-19.9-37.7-26.5-53.6c18.2,11.5,125,65.3,342.9,65.1C-77.5,66.8,21.5-2.9,32.4-12.4
			C28.6,2.8,15.6,33.7,5.2,55.4c-17,31-23.2,58.1-22.4,59.4c0.5,0.8,6.3-8.1,14.9-22.6C17.6,63.8,55.4,9.7,62.9-4.1
			C71.4-19.8,66.6-27,66.6-27"/>
	</g>
	<g transform="matrix(1,0,0,1,1079.49,294.885)">
		<path class="st1" d="M63.8,184.4l-76.2-56.1c-0.7-2.5-1.4-5-2.2-7.5l25-36.2c2.6-3.7,3.1-8.5,1.4-12.7c-1.7-4.2-5.3-7.2-9.6-7.9
			L-40,56.8c-1.6-3.3-3.4-6.6-5.1-9.9l17.8-40.7c1.8-4.1,1.4-9-1-12.7c-2.4-3.8-6.5-6-10.9-5.8l-42.9,1.6c-2.2-2.9-4.5-5.8-6.8-8.6
			L-79-63c1-4.4-0.3-9.1-3.3-12.3c-3.1-3.2-7.5-4.5-11.8-3.5l-41.8,10.3c-2.7-2.4-5.5-4.8-8.2-7.1l1.5-44.8c0.2-4.5-2-8.8-5.6-11.4
			c-3.6-2.5-8.2-2.9-12.2-1l-39,18.5c-3.1-1.8-6.3-3.6-9.5-5.3l-6.9-44.1c-0.7-4.5-3.6-8.3-7.6-10c-4-1.7-8.6-1.2-12.1,1.5
			l-34.8,26.1c-3.4-1.1-6.9-2.2-10.3-3.3l-15-41.8c-1.5-4.3-5-7.4-9.3-8.3c-4.3-0.9-8.7,0.6-11.6,3.9l-29.3,32.8
			c-3.5-0.4-7.1-0.8-10.6-1.1l-22.6-38.1c-2.3-3.9-6.3-6.2-10.7-6.2c-4.3,0-8.4,2.3-10.7,6.2l-22.6,38.1c-3.6,0.3-7.1,0.7-10.6,1.1
			l-29.3-32.8c-3-3.3-7.4-4.8-11.6-3.9c-4.3,0.9-7.8,4-9.3,8.3l-15,41.8c-3.5,1-6.9,2.1-10.3,3.3l-34.8-26.1
			c-3.5-2.7-8.1-3.2-12.2-1.5c-4,1.7-6.9,5.5-7.6,10l-6.9,44.1c-3.2,1.7-6.3,3.5-9.5,5.3l-39-18.5c-4-1.9-8.6-1.5-12.2,1
			c-3.6,2.5-5.7,6.8-5.6,11.4l1.5,44.8c-2.8,2.3-5.5,4.7-8.2,7.1l-41.8-10.3c-4.2-1-8.7,0.3-11.8,3.5c-3.1,3.2-4.3,7.9-3.4,12.3
			l9.8,43.6c-2.3,2.8-4.5,5.7-6.8,8.6l-42.9-1.6c-4.3-0.1-8.5,2-10.9,5.8c-2.4,3.8-2.8,8.6-1,12.7l17.8,40.7
			c-1.7,3.3-3.4,6.6-5.1,9.9l-42.3,7.2c-4.3,0.7-7.9,3.7-9.6,7.9c-1.7,4.2-1.1,9,1.4,12.7l25,36.2c-0.2,0.6-0.4,1.3-0.6,1.9
			l-70.7,75.2c0,0-10.8,8.5,4.9,28.5c13.9,17.6,85.4,87.5,123.1,124c15.9,18.6,26.9,30.1,28,29.1c1.8-1.6-7.7-35.4-39.1-75
			c-24.2-35.6-55.6-90.3-48.3-96.6c0,0,8.4-10.6,25.2-18.3c0.6,0.5-0.6-0.5,0,0c0,0,354.8,163.7,683.9,2.8
			c37.6-6.7,60.4,13.4,60.4,13.4c7.8,4.6-12.5,60.8-29.2,98.1C-50.3,346-53.6,379-51.7,380.2c1.2,0.7,9.5-11.9,21.3-31.9
			c29.1-40.6,84.1-117.9,94.2-136.7C75.2,190.3,63.8,184.4,63.8,184.4"/>
	</g>
	<g transform="matrix(1,0,0,1,917.896,244.679)">
		<path class="st1" d="M70.3,213.6c0,0,51.1-2.4,118.1-70.5l9.5-21.1c0,0-104.1-103.5,57.7-175c0,0-14.2,23.1-10,112.6
			c0,0,48.8-16.9,63.1-95.9c0,0,71.2,93.8-77.3,181.8c0,0-69.6,111.6-167.8,100.9L70.3,213.6z"/>
	</g>
	<g transform="matrix(1,0,0,1,676.997,488.361)">
		<path d="M79.9-94.4c0,0,35.5-38.8,70.9,0c0,0,27.9,51.8,0,77.7c0,0-45.6,36.2-70.9,0C79.9-16.8,49.5-45.2,79.9-94.4"/>
	</g>
	<g transform="matrix(1,0,0,1,719.761,425.169)">
		<path class="st2" d="M78.2-16.8c0,15.1-8.9,27.4-19.9,27.4c-11,0-19.9-12.3-19.9-27.4c0-15.1,8.9-27.4,19.9-27.4
			C69.3-44.2,78.2-31.9,78.2-16.8"/>
	</g>
	<g transform="matrix(1,0,0,1,512.148,482.736)">
		<path d="M86.5-99.4c0,0,60.8-26.9,77.4,33.2c0,0,17.4,70.1-49.9,74C114,7.8,28.1-8.7,86.5-99.4"/>
	</g>
	<g transform="matrix(1,0,0,1,543.968,426.204)">
		<path class="st2" d="M85.2-16.9c0,15.6-9.2,28.2-20.5,28.2c-11.3,0-20.5-12.6-20.5-28.2c0-15.6,9.2-28.2,20.5-28.2
			C76.1-45.1,85.2-32.5,85.2-16.9"/>
	</g>
	<g transform="matrix(1,0,0,1,593.317,576.574)">
		<path d="M83.3-61.5l77.6-6.2c0,0-2.6,12.5-12.7,21.9c0,0-26.7,29.3-57.3-2.4C90.8-48.3,85.8-53.7,83.3-61.5"/>
	</g>
	<g transform="matrix(1,0,0,1,269.796,270.778)">
		<path class="st1" d="M96.2,172.5c-0.6,0-1.3,0-1.9,0.1c-25.2-5.7-96-24.2-114.7-54.1c0,0,95.3-108.4-53.6-177.6l17.3,119.9
			c0,0-45.9-30.7-55.8-97.3c0,0-111.8,81.1,49.3,158.9c0,0,14.6,54.9,154.9,98.7l0.1-0.4c1.4,0.3,2.9,0.4,4.3,0.4
			c13.3,0,24-10.9,24-24.3C120.2,183.3,109.5,172.5,96.2,172.5"/>
	</g>
</g>
</svg>
